<svg xmlns="http://www.w3.org/2000/svg" xml:space="preserve" viewBox="0 0 477.867 477.867"><path fill="#fff" d="M460.8 307.2H151.706L119.347 32.137c-1.012-8.593-8.295-15.069-16.947-15.07H17.067C7.641 17.067 0 24.708 0 34.133S7.641 51.2 17.067 51.2h70.161l32.427 275.064c1.009 8.567 8.253 15.034 16.879 15.07H460.8c9.426 0 17.067-7.641 17.067-17.067S470.226 307.2 460.8 307.2M187.733 358.4c-28.277 0-51.2 22.923-51.2 51.2s22.923 51.2 51.2 51.2 51.2-22.923 51.2-51.2-22.923-51.2-51.2-51.2m0 68.267c-9.426 0-17.067-7.641-17.067-17.067s7.641-17.067 17.067-17.067S204.8 400.174 204.8 409.6s-7.641 17.067-17.067 17.067M392.533 358.4c-28.277 0-51.2 22.923-51.2 51.2s22.923 51.2 51.2 51.2 51.2-22.923 51.2-51.2-22.923-51.2-51.2-51.2m0 68.267c-9.426 0-17.067-7.641-17.067-17.067s7.641-17.067 17.067-17.067S409.6 400.174 409.6 409.6s-7.641 17.067-17.067 17.067"/><path fill="#fff" d="M460.8 17.067H170.667c-9.426.004-17.064 7.648-17.06 17.073q0 1.3.198 2.588l34.133 221.867a17.07 17.07 0 0 0 16.862 14.473h256c9.426 0 17.067-7.641 17.067-17.067V34.133c0-9.425-7.641-17.066-17.067-17.066M273.067 238.933h-53.623l-5.257-34.133h58.88zm0-68.266H208.93l-5.24-34.133h69.376zm0-68.267h-74.633l-7.868-51.2h82.5zM358.4 238.933h-51.2V204.8h51.2zm0-68.266h-51.2v-34.133h51.2zm0-68.267h-51.2V51.2h51.2zm85.333 136.533h-51.2V204.8h51.2zm0-68.266h-51.2v-34.133h51.2zm0-68.267h-51.2V51.2h51.2z"/></svg>