<svg xmlns="http://www.w3.org/2000/svg" width="800" height="800" fill="none" viewBox="0 0 24 24"><path fill="#E2A300" fill-rule="evenodd" d="M12 3a1 1 0 1 0 0 2 1 1 0 0 0 0-2m3 1.042V4a3 3 0 1 0-6 .042A8.5 8.5 0 0 0 4.042 9H4a3 3 0 1 0 .042 6A8.5 8.5 0 0 0 9 19.958V20a3 3 0 1 0 6-.042A8.5 8.5 0 0 0 19.958 15H20a3 3 0 1 0-.042-6A8.5 8.5 0 0 0 15 4.042m-.693 1.876A3 3 0 0 1 12 7a3 3 0 0 1-2.307-1.082 6.5 6.5 0 0 0-3.775 3.775A3 3 0 0 1 7 12a3 3 0 0 1-1.082 2.307 6.5 6.5 0 0 0 3.775 3.775A3 3 0 0 1 12 17a3 3 0 0 1 2.307 1.082 6.5 6.5 0 0 0 3.775-3.775A3 3 0 0 1 17 12a3 3 0 0 1 1.082-2.307 6.5 6.5 0 0 0-3.775-3.775m5.287 5.168A1 1 0 0 0 19 12a1 1 0 1 0 .594-.914m-6.68 8.508A1 1 0 0 0 12 19a1 1 0 1 0 .914.594m-8.508-6.68a.998.998 0 0 0 .301-1.621 1 1 0 0 0-1.414 0 1 1 0 0 0 1.113 1.62" clip-rule="evenodd"/></svg>