<svg xmlns="http://www.w3.org/2000/svg" viewBox="0 0 510 510"><path fill="#fff" d="m504.92 215.33-69.44-61.22V84c0-8.28-6.72-15-15-15h-81.55L264.92 3.75c-5.67-5-14.17-5-19.84 0L171.07 69H89.52c-8.28 0-15 6.72-15 15v70.11L5.08 215.33C2.004 218.391 0 221.504 0 226.58V495c0 8.11 6.585 15 15 15h480c8.396 0 15-6.838 15-15V226.58c0-4.913-2.033-8.218-5.08-11.25M480 460.22 351.64 339.09 480 254.44zM39.64 224.86c18.255-16.098 10.281-9.068 34.88-30.75v53.75c-19.785-13.038-24.303-16.029-34.88-23M104.52 99h300.96v168.65C286.756 345.953 305.443 333.629 255 366.89c-51.553-33.993-117.351-77.391-150.48-99.24zM255 35l38.57 34h-77.14zm215.36 189.86c-10.409 6.86-15.442 10.191-34.88 23v-53.75c24.598 21.682 16.625 14.653 34.88 30.75M30 254.44l128.36 84.65L30 460.22zm154.09 101.62 62.65 41.32a15 15 0 0 0 16.52 0l62.65-41.32L457.25 480H52.75z"/><path fill="#fff" d="M186.43 187.59h137.14c8.28 0 15-6.72 15-15 0-8.29-6.72-15-15-15H186.43c-8.28 0-15 6.71-15 15 0 8.28 6.72 15 15 15M186.43 254.83h137.14c8.334 0 15-6.776 15-15 0-8.339-6.768-15-15-15H186.43c-8.241 0-15 6.671-15 15 0 8.226 6.668 15 15 15"/></svg>